<svg xmlns="http://www.w3.org/2000/svg" id="Layer_1" version="1.1" viewBox="0 0 1024 1024">
  <defs>
    <style>
      .st1 {
        fill: #fff;
      }

      .st2 {
        filter: saturate(0.6) brightness(1.3)
      }

      .st0 {
        filter: saturate(0.7) brightness(1.2)
      }

      .st3 {
        filter: saturate(0.8) brightness(1.1)
      }

      .st0,
      .st2,
      .st3,
      .st4 {
        fill: currentColor;
      }
    </style>
  </defs>
  <path
    d="M376.8 82.4C326 66.9 274.7 70 222.6 67.9c-51.9-2-103.4 2.9-152.8 19.4-9.8 3.3-17.3 11.5-17.7 22.3-6.6 119.4-5.9 239-4.1 358.6.9 44.7 1.7 89.5 3.8 134.2.7 15.7 8.6 30.5 21.6 39.4 2.4 1.3 5.9 2.6 8.3 3.9 20.3 5.5 38.7-2.3 54.9-15 6.2-5.8 11.3-11.7 17.5-17.5 17.3-16.1 32.6-37.4 47.3-55.9 22.3-28.1 25.9-38.8 51.7-4.6 20.7 27.6 41.6 55 67.1 78.4 12.9 11.3 27.1 20.3 44 20.9 8.4.3 17-1.8 24.4-7.6 9.9-6.9 15.1-16.4 16.7-28.4 5.8-61.4 10.4-124.1 11.3-185.6 1.2-103.8 4.8-206.4 1.2-310.4-.4-21.8-21.9-31-41-37.7Z"
    class="st2" />
  <path
    d="M378.4 77.3c-31.9-9.6-65.2-12.4-98.3-13.3-33.1-1-66.5-2.7-99.6-1.4-32.6 1.3-65.1 5.9-96.4 14.8C71.3 81 57 84.3 50.2 97c-3.2 6-3.4 12.4-3.8 19s-.9 17.2-1.3 25.7c-3.1 70.1-4 140.3-3.7 210.4.3 69.9 1.2 139.9 3.4 209.8.3 8.5.6 17.1.9 25.6.3 8.1.1 16.4 1.8 24.4 2.5 12.4 9.4 23.7 19.1 31.7 21.9 18 54.1 7.9 73.6-8.7s11.6-11.8 17.5-17.5c5.8-5.6 11.4-11.4 16.7-17.5 9.8-11.4 18.8-23.3 28.1-35.1 4.1-5.2 8.2-10.5 12.3-15.7 2.9-3.7 6-8 9.9-10.7 6.2-4.3 12.3 3.6 16.2 8 10.6 12 19.6 25.5 29.5 38.1 9.7 12.2 19.7 24.2 30.4 35.4 19 19.9 44.5 43.3 74.6 36.6 12.8-2.8 24.7-12.2 30.5-24 6.5-13.2 5.9-29.2 7.2-43.5 3-34.5 5.5-69 7.1-103.6 1.6-34.6 1.9-69.2 2.4-103.8.6-34.7 1.3-69.4 1.7-104 .4-34.7.6-69.4 0-104.1-.2-17.4-.6-34.8-1.2-52.3-.4-11.9-5.1-21.5-14.4-29-8.8-7.1-19.7-11.3-30.3-15-6.5-2.3-9.7 8-3.2 10.3 10.4 3.7 21.8 7.7 29.7 15.7 9.6 9.6 7.7 23.4 8.1 35.9.9 33.3 1.1 66.7.9 100-.3 65.8-1.5 131.7-2.8 197.5-.6 33.1-2.3 66.2-4.6 99.3-1.1 16.2-2.4 32.4-3.8 48.6-.7 7.7-1.3 15.4-2.1 23.1-.7 7.1-1.2 14.1-4.5 20.5-6.3 12.4-20 19.6-33.7 18.6-14-1-26.6-8.9-37-17.9-22.8-19.6-41.6-44.1-59.7-67.9-7.9-10.3-15.2-22.3-25.7-30.2-5.8-4.4-12.9-6.1-19.5-2.4-7.8 4.3-13.3 12.9-18.6 19.7-9.1 11.6-18 23.3-27.3 34.8-9.4 11.6-19.8 21.9-30.3 32.6-10.1 10.3-20.2 19.8-34.3 24.5s-27.6 3.8-38-5.5c-9.8-8.7-14.5-20.8-15.2-33.7-3.2-66.2-3.9-132.5-4.5-198.7-.7-67.3-.6-134.6 1.3-201.9.5-16.5 1-32.9 1.7-49.4.3-7.9.7-15.7 1.1-23.6.4-7.2-.6-16.1 2.1-23s6.1-8.7 11-10.9c7.4-3.3 15.9-5.2 23.7-7.2 15.2-4 30.7-7 46.2-9.2 31.4-4.3 62.6-4 94.1-3.1 31.6.9 63.3.5 94.7 4.2 15.9 1.9 31.5 5 46.9 9.6 6.6 2 9.9-8.3 3.2-10.3Z"
    class="st2" />
  <path
    d="M126 317.5c-6.3 36.4 30.6 78.7 67.3 86.4 19.1 2.6 38.3-7.2 51.3-20.6 12.1-13.1 20.7-30.5 23.3-48-.1-1.4-1.1-2.3-2.7-2.8-45.5-9.1-91.8-14.7-138.2-17.7"
    class="st1" />
  <path
    d="M121.2 316.3c-7.6 40.5 34.2 87.2 73.5 92.6 13.4 1.6 27.5-3.2 38.8-10.4 13.1-8.3 23.1-20.8 29.9-34.6 4.2-8.5 7.2-17.6 9.1-26.9.3-1.5.5-3.1.2-4.6-.3-2.1-1.9-3.6-4-4.3-45.4-9.4-91.6-15-137.9-18.3-2.7-.2-6.6-.1-7.8 2.6-1.1 2.3.2 5.4 2.7 6.4 45.6 4.8 91.6 8.7 136.7 18.1 1.2.1 2.4.6 3.1-.3.4-.7-.7-2.7-1.4-3-.6-.2-.8.2-1.1.9-5 22.4-16.4 44.8-36.7 56.7-9.2 5.4-19.7 9-30.4 8-23.5-3.3-47.8-25.3-58.5-46-5.3-10.2-7.9-21.7-6.9-33.2 0-1.2 0-2.5-.5-3.6-1.3-4.2-7.3-5-8.6-.6v.3Zm161.2 81.3c8.4-37.5 18-77.3 2.5-114-2-5.3-3.5-10.4-2.7-16.2 1.6-17 15.4-27.7 31.8-20.1 7.1 3.1 13.2 10.3 14.8 17.8 2.1 9.1-2.7 18.7-6.4 27-2.9 6.4-6.2 13.1-9.1 19.6-6.4 13.6-3.7 30.7-5.8 45.8-1.4 12.2-2.8 24.3-4.2 36.5-.6 4.4-1.1 8.9-3.2 12.9-2.3 4.7-8.1 8.9-13.2 6.2-4.1-2.8-5.2-10-4.5-15.2"
    class="st1" />
  <path
    d="M286.8 398.7c8.4-31.4 14.7-64.8 8.8-97.3-2.1-14.4-13.9-29.4-5.3-43.8 8.8-15.3 33-5.2 33.4 10.7.3 4.5-.8 9.3-2.6 14-3.4 8.3-7.8 16-11.3 24.2-6.8 13.3-6.1 28.6-6.7 43.1-.7 13.1-2.8 26.3-4.3 39.3-1 6-.5 15.4-6 19.1-2.1 1.2-4.4-.4-4.9-2.6-1.3-3.5 0-8.3-1.9-10.7-1.6-2.1-5-1.8-6.8 0-1.7 1.7-2 4.3-2 6.6.2 7.8 3.8 16.5 11.5 17.4 7.4.8 14-4.5 16.4-11 3.1-7.6 3.3-16.1 4.3-24.1 2.1-17 4-34.1 4.4-51.3.3-8.5 2.5-16.7 6.4-24.2 6.1-13.8 16.5-28.5 13.5-44.1-2.1-9.4-9-17.3-17.7-21.3-19.7-8.9-37.4 4.4-38.9 25.1-.8 7.2 1.6 14.1 4.3 20.7 6.1 14.4 7.2 30.4 6.4 45.9-.8 20.2-5.1 40-9.9 59.6-.3 1.6-.5 3.2 0 4.7 1.2 4.3 7.1 4.5 8.8.4l.2-.3Z"
    class="st1" />
  <path
    d="M639.3 272.8c-51.3-13.7-102.4-8.8-154.7-9.1-51.9-.2-103.2 6.5-152 24.8-9.7 3.6-16.9 12.1-16.9 22.9-2.4 119.5 2.4 239 8.5 358.6 2.4 44.7 4.8 89.3 8.5 134 1.2 15.7 9.7 30.2 22.9 38.6 2.4 1.2 6 2.4 8.5 3.6 20.5 4.8 38.6-3.6 54.3-16.9 6-6 10.9-12.1 16.9-18.1 16.7-16.7 31.3-38.5 45.3-57.5 21.3-28.8 24.5-39.7 51.5-6.4 21.7 26.8 43.5 53.5 69.8 76 13.3 10.9 27.8 19.3 44.7 19.3 8.5 0 16.9-2.4 24.1-8.5 9.7-7.2 14.5-16.9 15.7-29 3.6-61.6 6-124.4 4.8-185.9-2.4-103.8-2.4-206.4-9.7-310.3-1.2-21.7-22.9-30.2-42.3-36.2Z"
    class="st0" />
  <path
    d="M640.7 267.6c-32.3-8.4-65.6-10.1-98.8-9.9-33.1.2-66.6-.4-99.6 2.1-32.5 2.5-64.8 8.1-95.8 18.2-12.6 4.1-26.8 7.9-33.2 20.8-3 6.1-3 12.5-3.1 19.1-.2 8.6-.3 17.2-.4 25.8-.7 70.2.9 140.3 3.7 210.4 2.7 69.9 6.1 139.8 10.7 209.5l1.8 25.5c.6 8.1.7 16.4 2.6 24.3 2.9 12.3 10.2 23.4 20.2 31.1 22.5 17.3 54.3 6 73.3-11.3 6.1-5.5 11.2-12.2 16.9-18.1 5.6-5.8 11-11.8 16.1-18.1 9.4-11.7 18-24 26.9-36.1 3.9-5.4 7.8-10.8 11.8-16.1s5.7-8.2 9.5-11c6.1-4.5 12.4 3.2 16.5 7.5 11 11.6 20.5 24.8 30.8 37s20.5 23.5 31.7 34.4c19.7 19.3 46 41.7 75.8 34 12.7-3.3 24.3-13.1 29.6-25.1 6-13.4 4.9-29.3 5.6-43.7 1.8-34.6 3.1-69.1 3.5-103.7.4-34.6-.5-69.2-1.2-103.8-.6-34.7-1.2-69.4-2-104-.8-34.7-1.9-69.4-3.6-104-.8-17.4-1.8-34.8-3.1-52.2-.9-11.9-5.9-21.4-15.4-28.5-9.1-6.8-20.1-10.6-30.8-14-6.6-2.1-9.5 8.3-2.9 10.4 10.5 3.3 22 6.9 30.2 14.6 9.9 9.3 8.6 23.1 9.3 35.6 2 33.3 3.4 66.6 4.4 99.9 2 65.8 3.1 131.7 4.1 197.5.5 33.1 0 66.3-1.1 99.4-.6 16.2-1.3 32.4-2.1 48.7-.4 7.7-.8 15.5-1.2 23.2-.4 7.1-.7 14.1-3.8 20.7-5.9 12.6-19.3 20.2-33 19.8-14.1-.5-26.9-8-37.6-16.6-23.4-18.8-43.1-42.6-62-65.8-8.2-10.1-16-21.7-26.7-29.3-6-4.2-13.1-5.6-19.6-1.7-7.6 4.6-12.8 13.4-17.9 20.4-8.6 11.9-17.2 23.9-26.1 35.7-9 12-19 22.6-29.1 33.6-9.8 10.7-19.4 20.5-33.4 25.7-12.5 4.6-27.5 4.7-38.2-4.1-10.1-8.4-15.3-20.3-16.3-33.1-5.5-66-8.5-132.3-11.5-198.4-3-67.2-5.3-134.5-5.8-201.8-.1-16.5-.1-32.9 0-49.4 0-7.9.1-15.7.3-23.6.1-7.2-1.2-16.1 1.3-23.1 1.8-5.1 5.8-8.9 10.6-11.2 7.3-3.5 15.7-5.7 23.4-8.1 15.1-4.5 30.4-8.1 45.9-10.8 31.2-5.4 62.4-6.2 94-6.4 31.6-.2 63.2-1.7 94.7.9 15.9 1.3 31.7 3.9 47.2 8 6.7 1.8 9.6-8.6 2.9-10.4Z"
    class="st0" />
  <path
    d="M589 523.6c4.1-5.6 8.7-11.1 10.2-18 1.8-7.8.2-16.2-1.5-23.9-.5-1.8-.6-2.1-.7-3.9-3-24.4-12.6-124.9-53.4-84.5-8 8.5-13.6 19.7-15.3 31.1-16.2-2.2-33-.7-48.9 2.9-2.3.8-4.3 0-5.5-2.1-5.7-8.2-8.9-17.9-15.4-25.7-8.4-10.2-24.3-15.2-32.7-2.2-2.1 3-3.6 6.5-4.9 9.9-9.6 26-15.8 53.2-18.4 80.8-.3 1.6.3 2.6.2 4.2-.9 12 7 22.4 14.1 31.7 5.5 7.1 11.3 14.3 16.3 21.5.2 0 .3.2.5.3h-1.7c3 7.2 3.2 15.3 1.1 22.7-3.1 11.9-12.3 20.7-21.9 27.6v.3c0 .7 2 1.1 3.5 1.4 2.5.6 5.1.8 7.7.9 1.6 0 3.1-.3 4.1.9 1.3 1.2.9 3.2-.2 4.4-7.9 11.4.2 25.2 11.2 31.3.4.3 1.1.6 1.5.5 1-.1.8-2.3 1.2-4 .4-2.9 1.8-7.4 5.4-4.8 24.6 15.6 58.9 22.9 88.1 20 8.8-2 16.5-7.2 24.6-11 4.1-2.1 8.2-4.2 12.2-6.2.7-.4 1.4-.6 2.3-.7 2.5-.4 4.1 1.6 6.2 2.4 3.3 1 6.3-1.8 7.3-4.8 3.5-9.6 2.8-20.4-1-29.8-1.2-2.6-1.3-5.5 1.7-6.6 2.9-1.2 6.1-2.2 9-3.5 1-.5.5-.9-.6-1.3-20.5-7.7-27.5-33.7-13.5-50.6.5-.7 1.8-2-.1-.4-.6.5-1.3 1-1.1.6 2.7-3.8 5.7-7.7 8.5-11.6Zm-160.4-28c-1.2-8.1-2.1-16.1-2.8-24.3-.4-4.4 4.4-5.8 7.5-4.1 15.7-2.5 31.8-3.8 47.7-2.9 7.5.4 8.9 4 9.1 11 0 1.6 0 3.2.1 4.8 7.8-2.1 15.6-3.6 23.6-2.7 0-4.4-.3-8.9.8-13.1.6-2.3 2.6-3.4 4.8-3.7 9.4-1.1 18.8-1.8 28.2-1.7 7.8 0 16.4-.2 23.8 2.6 3 1.1 4.7 2.4 5.2 5.6.6 4.2 0 8.9-.1 13.2-.2 6.8-1.9 14.5-.6 21.1.6 3.1-1.4 6.3-4.8 6.3h-50.6c-1.1 0-2-.3-2.7-.7-2.2-.3-4.2-1.9-4.2-4.8 0-4.9.1-9.8.2-14.8-7.9-1.2-15.7.7-23.4 3v11.3c0 1.9-1 3.3-2.2 4.1-.3 2.3-1.8 4.5-4.8 4.7-8.5.6-17 1.2-25.5 1.7-3.9.2-7.8.4-11.8.6-3.3.1-7.4 1-10.7 0-6.4-2-6.1-11.8-6.9-17.2Z"
    class="st1" />
  <path
    d="M892.8 423.5c-52.1-10.1-102.8-1.7-154.9 1.7-51.8 3.4-102.5 13.6-149.9 35.3-9.4 4.3-16 13.2-15.3 24.1 5.9 119.4 19.1 238.3 33.4 357.1 5.5 44.4 11 88.8 17.8 133.1 2.3 15.6 11.7 29.4 25.6 36.9 2.5 1 6.2 2 8.7 3 20.8 3.4 38.3-6.3 53-20.7 5.6-6.4 10-12.8 15.6-19.2 15.5-17.8 28.5-40.6 41.2-60.5 19.2-30.3 21.7-41.3 50.9-10 23.5 25.2 47.1 50.3 74.9 71 14 9.9 29 17.3 45.9 16.2 8.4-.6 16.7-3.6 23.5-10.1 9.1-7.9 13.3-17.9 13.6-30-.7-61.7-2.7-124.5-8.2-185.8-9.7-103.4-16.8-205.8-31.3-308.8-2.7-21.6-25-28.5-44.7-33.2Z"
    class="st3" />
  <path
    d="M894.3 418.4c-34.4-6.5-69.2-5.5-103.9-2.7-32.9 2.6-66.1 4.3-98.8 9.3-31.6 4.8-62.7 12.9-92.3 25-12.1 4.9-24.9 9.7-30 22.7-2.6 6.7-1.9 13.5-1.5 20.5.5 9.2 1 18.5 1.6 27.7 8.5 138.8 24.6 277.5 43.6 415.3 1.2 8.5 2.4 16.9 3.6 25.3 1.2 7.9 1.8 16.2 4.4 23.9 4.2 12.1 12.2 22.7 23.1 29.5 23.3 14.6 53.8 1.2 70.9-16.8 5.4-5.7 9.8-12.4 14.9-18.4 4.9-5.8 9.7-11.8 14.1-18 9.2-12.9 17.3-26.4 25.7-39.8s10.9-20.2 18.6-28c6-6.1 12.5.4 17.6 5.1 11.5 10.6 21.7 22.8 32.7 34.1 11.1 11.4 22.5 22.5 34.7 32.8 20.8 17.7 48.7 38.8 77.9 29.1 12.5-4.2 23.2-14.4 28-26.7 5.3-13.6 3-29.8 2.8-44-.6-34.6-1.7-69.2-3.8-103.7-2.1-35.3-5.5-70.4-8.6-105.6-3-34.5-6-69.1-9.2-103.6-3.2-34.5-6.7-69.1-10.9-103.5s-4.1-33.4-6.5-50.1c-1.7-11.9-7.4-21.1-17.6-27.6-9.4-6-20.4-8.9-31.1-11.5-6.7-1.6-9.7 8.7-3 10.3 10.5 2.5 21.9 5.3 30.7 11.9 10.6 7.9 10.7 20.3 12.3 32.3 4.5 33.3 8.2 66.6 11.6 100 6.7 66.2 12.4 132.5 18.1 198.8 2.8 32.3 4.6 64.7 5.7 97.1.6 16.9 1.1 33.9 1.4 50.8.1 7.7.3 15.5.4 23.2 0 7.1.3 14-2.1 20.8-4.5 12.6-17.1 21.7-30.4 22.5-14.4.8-27.6-5.5-39.3-13.3-25.3-17-46.8-40.1-67.5-62.2-8.7-9.2-17.1-20-28-26.8s-13.3-5.1-19.7-.8c-7.8 5.3-12.6 15-17.4 22.8-7.5 12-14.9 24.1-22.7 36.1-8.4 13-17.9 24.6-27.5 36.7-8.8 11.2-17.9 21.2-31.1 27.2-11.2 5.1-25.3 6.5-36.2-.2-10.9-6.7-17.9-18.2-20.2-30.6-6.1-32.6-9.4-65.9-13.5-98.7-4.1-32.7-8.1-65.4-11.9-98.2-7.7-66.5-14.7-133-19.9-199.7-1.3-16.3-2.4-32.6-3.5-49-.5-8.5-1.1-17-1.5-25.6-.4-7.6-2.2-16.4-.8-24 2.4-13.8 19.9-18.2 31-22.5 14.3-5.5 29-10.1 43.8-13.8 29.9-7.5 60.3-11.1 91-13.3 32.7-2.4 65.4-6.4 98.2-6.1 16.4.2 32.8 1.5 48.9 4.6s9.8-9.1 3-10.3Z"
    class="st3" />
  <rect width="375.7" height="129.8" x="152.6" y="26.8" class="st4" rx="50.3" ry="50.3"
    transform="rotate(9 340.247 91.482)" />
  <path
    d="M473.8 180.5c-2.5 0-5-.2-7.5-.6l-272.8-43.2c-28.4-4.5-47.9-31.3-43.4-59.7l4.7-29.9c2.2-13.7 9.6-25.8 20.9-34 11.3-8.2 25.1-11.5 38.8-9.4l272.8 43.2c28.4 4.5 47.9 31.3 43.4 59.7l-4.7 29.9c-2.2 13.7-9.6 25.8-20.9 34-9.2 6.7-20.1 10.2-31.3 10Zm-6.7-5.5c12.4 2 24.9-1.1 35.1-8.5 10.2-7.4 17-18.4 18.9-30.8l4.7-29.9c4.1-25.7-13.6-50-39.3-54.1L213.8 8.5c-12.4-2-24.9 1.1-35.1 8.5-10.2 7.4-17 18.4-18.9 30.8l-4.7 29.9c-4.1 25.7 13.6 50 39.3 54.1L467.2 175Z"
    class="st4" />
  <path
    d="M214.4 93.5c-4-.6-7.3-2.1-10-4.4-2.7-2.3-4.5-5.1-5.6-8.6-1.1-3.5-1.3-7.4-.6-11.6.7-4.3 2.1-8 4.2-11s4.8-5.2 8-6.5c3.2-1.3 6.8-1.7 10.8-1 4.6.7 8.3 2.5 11.1 5.3 2.8 2.8 4.3 6.4 4.6 10.6l-9.2.5c-.2-2.2-.9-4.1-2.2-5.7-1.3-1.5-3.1-2.5-5.4-2.8-3.3-.5-6 .4-8.1 2.7-2.1 2.4-3.4 5.5-4 9.4-.4 2.6-.4 4.9 0 7.1.4 2.2 1.3 4 2.5 5.4 1.3 1.4 3 2.3 5.3 2.7 2.4.4 4.4 0 6.1-1.1 1.7-1.1 3-2.8 3.9-4.9l8.6 3.3c-1.5 4-4.1 7-7.7 8.8-3.6 1.9-7.7 2.5-12.3 1.7Zm43.8 7c-4-.6-7.3-2.1-10-4.4-2.7-2.3-4.5-5.1-5.6-8.6-1.1-3.5-1.3-7.4-.6-11.6.7-4.3 2.1-8 4.2-11s4.8-5.2 8-6.5c3.2-1.3 6.8-1.7 10.8-1 4 .6 7.3 2.1 10 4.3 2.7 2.3 4.5 5.1 5.6 8.6 1.1 3.5 1.3 7.4.6 11.7-.7 4.3-2.1 7.9-4.2 10.9s-4.8 5.1-8 6.5c-3.2 1.3-6.8 1.7-10.8 1.1Zm1.3-7.9c2.2.4 4.2 0 5.8-.9 1.7-1 3-2.5 4.1-4.4 1.1-1.9 1.8-4.2 2.2-6.7.4-2.6.4-4.9 0-7.1-.4-2.2-1.3-4-2.5-5.4-1.3-1.5-3-2.4-5.3-2.7-2.2-.3-4.1 0-5.8 1-1.7 1-3 2.5-4.1 4.4-1.1 2-1.8 4.2-2.2 6.8-.4 2.5-.4 4.9 0 7.1.4 2.2 1.2 4 2.5 5.4 1.3 1.5 3 2.4 5.2 2.7Zm44.5 15.1c-4-.6-7.3-2.1-10-4.4-2.7-2.3-4.5-5.1-5.6-8.6-1.1-3.5-1.3-7.4-.6-11.6.7-4.3 2.1-8 4.2-11s4.8-5.2 8-6.5c3.2-1.3 6.8-1.7 10.8-1 4 .6 7.3 2.1 10 4.3 2.7 2.3 4.5 5.1 5.6 8.6 1.1 3.5 1.3 7.4.6 11.7-.7 4.3-2.1 7.9-4.2 10.9s-4.8 5.1-8 6.5c-3.2 1.3-6.8 1.7-10.8 1.1Zm1.3-7.8c2.2.4 4.2 0 5.8-.9 1.7-1 3-2.5 4.1-4.4 1.1-1.9 1.8-4.2 2.2-6.7.4-2.6.4-4.9 0-7.1-.4-2.2-1.3-4-2.5-5.4-1.3-1.5-3-2.4-5.3-2.7-2.2-.3-4.1 0-5.8 1-1.7 1-3 2.5-4.1 4.4-1 2-1.8 4.2-2.2 6.8-.4 2.5-.4 4.9 0 7.1.4 2.2 1.2 4 2.5 5.4 1.3 1.5 3 2.4 5.2 2.7Zm26.9 11.4 8.8-55.6 9.6 1.5-4.9 30.7h.7c0 .1 17.5-14.4 17.5-14.4l11.2 1.8-18.8 15.5 13.1 26.4-11.5-1.8-9.9-19.9-4.1 3.3-2.2 14-9.6-1.5Zm42.9 6.8 6.6-41.7 9.6 1.5-6.6 41.7-9.6-1.5Zm12.3-46.9c-1.5-.2-2.7-1-3.7-2.2-.9-1.2-1.3-2.6-1-4 .2-1.5 1-2.6 2.2-3.5 1.3-.9 2.6-1.2 4.2-.9 1.5.2 2.8 1 3.7 2.2.9 1.2 1.3 2.5 1 4-.2 1.5-1 2.7-2.2 3.5-1.3.9-2.7 1.2-4.2.9Zm20.8 27.1-3.9 24.4-9.6-1.5 6.6-41.7 9 1.4-1.2 8.3c3.4-5.5 8.1-7.8 14.1-6.8 4.2.7 7.4 2.6 9.5 5.7 2.1 3.1 2.8 7.2 2 12.2l-4.2 26.5-9.6-1.5 4-25c.4-2.8 0-5.1-1.1-6.9-1.2-1.8-3-2.9-5.5-3.3-2.5-.4-4.8 0-6.7 1.5-1.9 1.4-3.1 3.6-3.6 6.7Zm47.7 49.5c-5-.8-8.8-2.3-11.5-4.6s-4.3-4.9-4.9-7.9l8.6-1.7c.4 1.3 1.3 2.6 2.6 4s3.4 2.3 6.4 2.8c3 .5 5.5.1 7.5-1s3.3-3.2 3.7-6.2l1.2-7.9h-.8c-.6.8-1.5 1.7-2.6 2.6-1.1.9-2.4 1.6-4.1 2.1s-3.6.5-6 .1c-3.1-.5-5.9-1.7-8.2-3.6-2.3-1.9-4-4.5-5-7.7s-1.2-7.1-.5-11.7 2.1-8.3 4.1-11.2c2-2.9 4.4-5 7.3-6.3 2.8-1.2 5.8-1.6 9-1.1 2.4.4 4.4 1.1 5.8 2.2 1.4 1.1 2.5 2.3 3.3 3.6.7 1.3 1.3 2.5 1.6 3.6h.5l1.1-6.8 9.4 1.5-6.6 41.8c-.6 3.7-1.9 6.7-4 8.8-2 2.1-4.6 3.6-7.7 4.3-3.1.7-6.5.8-10.2.2Zm4-24.8c3.1.5 5.7-.3 7.7-2.3 2-2 3.4-5 4-9 .6-4 .3-7.3-1-10s-3.5-4.3-6.7-4.8-5.9.4-7.9 2.6c-2.1 2.3-3.4 5.3-4 9-.6 3.9-.3 7.1 1 9.7 1.3 2.6 3.6 4.1 6.8 4.6Z"
    class="st1" />
  <rect width="209.7" height="128.3" x="523.1" y="225.7" class="st4" rx="50.3" ry="50.3"
    transform="rotate(-2.9 636.896 294.817)" />
  <path
    d="M573.6 359.3c-12.9 0-25.2-4.7-34.9-13.5-10.4-9.4-16.5-22.2-17.2-36l-1.5-28.7c-1.5-28.8 20.7-53.4 49.5-54.8l110-5.7c28.8-1.5 53.4 20.7 54.8 49.5l1.5 28.7c.7 13.9-4.1 27.2-13.4 37.6-9.4 10.4-22.2 16.5-36 17.2l-110 5.7h-2.7Zm108.6-133.9h-2.5l-110 5.7c-26 1.3-46.1 23.6-44.8 49.6l1.5 28.7c.6 12.6 6.2 24.1 15.6 32.6 9.4 8.5 21.5 12.8 34.1 12.2l110-5.7c12.6-.6 24.1-6.2 32.6-15.6 8.5-9.4 12.8-21.5 12.2-34.1l-1.5-28.7c-1.3-25.2-22.2-44.8-47.2-44.8Z"
    class="st4" />
  <path
    d="M597 314.1c-2.6.1-5-.2-7.2-1.1-2.2-.8-3.9-2.2-5.2-4-1.3-1.8-2-4.1-2.2-6.8-.2-3.1.5-5.6 1.9-7.4 1.4-1.8 3.4-3.2 5.7-4.1 2.4-.9 4.9-1.6 7.6-2 3.6-.6 6.2-1.1 7.8-1.5 1.6-.4 2.4-1.3 2.3-2.8v-.2c-.1-2-.8-3.6-2.1-4.7s-3.1-1.5-5.5-1.4c-2.4.1-4.3.8-5.7 1.9-1.4 1.1-2.3 2.4-2.7 3.8l-9.1-1.4c1-3.7 3.1-6.6 6.2-8.5 3.1-2 6.7-3 10.9-3.3 2-.1 4 0 6 .4s3.9 1 5.6 2c1.7 1 3.1 2.4 4.3 4.2 1.1 1.8 1.7 4.1 1.9 6.9l1.4 27.9-9.3.5-.3-5.7h-.4c-.8 1.9-2.2 3.5-4.2 4.9-1.9 1.4-4.5 2.2-7.8 2.4Zm2.1-7.3c3-.2 5.3-1.1 7-2.9 1.7-1.8 2.5-3.9 2.4-6.2l-.3-4.9c-.4.4-1.2.7-2.3 1-1.1.3-2.3.6-3.6.9-1.3.3-2.3.5-3.2.6-2.2.4-4 1.1-5.4 2.1-1.4 1-2.1 2.4-2 4.3 0 1.8.8 3.1 2.2 4 1.4.9 3.1 1.2 5.1 1.1Zm30 4.8-2.1-41.7 9.4-.5.4 7h.4c.6-2.5 1.8-4.4 3.6-5.8 1.8-1.4 3.9-2.2 6.3-2.3h3.6l.5 8.9c-.4 0-1.1-.2-2-.2h-2.7c-2.7.1-4.9 1.1-6.6 2.9-1.7 1.8-2.5 4-2.3 6.6l1.3 24.5-9.7.5Zm48.8-44.3.4 7.6-8.1.4 1.1 22.3c0 1.5.5 2.6 1.1 3.3.7.7 1.8 1 3.2.9.4 0 1-.1 1.7-.3.7-.1 1.3-.3 1.8-.4l1.9 7.4c-1.1.4-2.1.7-3.2.9s-2.2.3-3.2.4c-4 .2-7.1-.6-9.4-2.5-2.2-1.9-3.5-4.7-3.6-8.3l-1.2-23.2-5.9.3-.4-7.6 5.9-.3-.5-9.9 9.7-.5.5 9.9 8.1-.4Z"
    class="st1" />
  <rect width="128.3" height="128.3" x="841.3" y="360.2" class="st4" rx="50.3" ry="50.3"
    transform="rotate(8.2 909.063 426.323)" />
  <path
    d="M917.7 492.8c-2.5 0-5-.2-7.5-.5l-28.5-4.1c-13.7-2-25.9-9.3-34.3-20.5-8.4-11.2-11.9-24.9-9.9-38.7l4.1-28.5c2-13.7 9.3-25.9 20.5-34.3 11.2-8.4 24.9-11.9 38.7-9.9l28.5 4.1c13.7 2 25.9 9.3 34.3 20.5 8.4 11.2 11.9 24.9 9.9 38.7l-4.1 28.5c-2 13.7-9.3 25.9-20.5 34.3-9.2 6.8-20 10.4-31.2 10.4Zm-24.5-132.1c-23.1 0-43.4 17-46.8 40.5l-4.1 28.5c-1.8 12.4 1.4 24.9 9 35 7.6 10.1 18.6 16.7 31.1 18.5l28.5 4.1c12.4 1.8 24.9-1.4 35-9 10.1-7.6 16.7-18.6 18.5-31.1l4.1-28.5c1.8-12.4-1.4-24.9-9-35-7.6-10.1-18.6-16.7-31.1-18.5l-28.5-4.1c-2.3-.3-4.6-.5-6.8-.5Z"
    class="st4" />
  <path
    d="m897 450.6 3-20.6-22-3.2 1.6-11 22 3.2 3-20.5 12.8 1.9-3 20.5 22.1 3.2-1.6 11-22.1-3.2-3 20.6-12.8-1.9ZM795.2 738.5h1.2c-2.8 4.9-6.1 10.3-11.4 12.5-7.2 2.1-15.6.2-21.5-5.1-19.6-16.4-37.8-35-49.7-58-7.3-14.5-12.5-30.4-12.2-46.8 1.9-39.9 37.4-34.3 59.8-13.1 6.1 5.6 9.2 12.1 14.1 2.9 7.8-13.1 19.2-25.6 34.8-28.7 20.5-4.8 36.8 11.9 38 31.7 2 32.1-30.2 77.1-53.1 104.5Z"
    class="st1" />
</svg>