<svg xmlns="http://www.w3.org/2000/svg" id="Layer_1" version="1.1" viewBox="0 0 1024 1024">
  <defs>
    <style>
      .st0 {
        fill: #fff;
      }

      .st1 {
        filter: contrast(0.75) brightness(1.25);
      }

      .st1,
      .st2 {
        fill: currentColor;
      }
    </style>
  </defs>
  <path
    d="M937.3 948.8c-.3.2-.6.2-1 .3-2.9-.1-5.9-1.4-8.9-2.1-5.4-1-38.7-13.1-32.4 2.2 2.1 4.9 6.4 9.5 9.2 14.2 11.9 18.7 19.1 39.4 18.9 61s0 .1-.1.1l-789.5 1.6s-.1 0-.1-.2c5-12.2 10.7-24.1 19-34.2 2.7-3.6 10.3-10.6 4.2-14.2-12.8-4.8-29.2 3.8-41.8 6.5-1.2.1-1.2-.5-.6-1.3l.6-.6c.2 0 .4 0 .6-.1h.2c.2 0 .5-.3.4-.5 1.3-1.3 2.4-2.5 4-4.3 19.9-20.8 36.4-44.8 49.6-70.4 15.4-28.3 22.5-56.8 19.6-89-1.7-31.5-13.1-62.1-25.8-91.1-7.1-18.1-16.7-35.3-26.4-52.1-19.3-31.9-43.4-59.7-48.5-98.1-5.5-31 3.1-62.6 8.6-93.3 5.2-31.8 8.4-63.6 12.3-95.4 5.8-55.8 11.1-110.3 18.4-166 4.5-55.7 18.1-111.7 53.4-156.5 28.5-37.8 75.6-47.7 117.3-25.2 30.9 16.4 53.3 44.3 75.7 70.2 13.3 16.5 26.5 34.6 38.7 52.7 4.2 5.9 7.5 13.6 14 17.2 6.4 3.6 14.7.7 21.6-.4 25-4.2 38.4-9.1 63.9-7.2 9.6.6 31.2 2 40.8 2.9 12.9 1.1 26.9 2.6 35.4-9.1 16.6-23.3 32.1-47.9 49.7-70.8 19.1-23.9 41.2-45.4 66.3-63.5 5.7-3.8 11.5-7 17.7-9.8C769.9-.3 813 19.1 840.9 61.4c28 41.1 38.4 90.5 45 138.9 8.9 78 10.2 155.2 26 233.3 5.5 28.5 12.6 56.2 18.1 84.6 4.5 25.5 11.2 52.4 2.9 77.7-2.5 8.9-4.8 17.8-8.6 26.2-6.6 15-16.1 28.5-24.1 42.7-19.8 36.4-35.1 75.4-39.1 116.9-1.5 16.5-.8 33.1 3.3 49.1 5.9 17.7 12.7 34.7 22.4 51 13.8 21.6 30.6 40.4 46.1 60.5 1 1.3 2.2 2.9 3.1 4.2M181.8 241.9l.7.9c42-32.1 89.7-65.8 145.1-62.1 7.6.5 15.1 1.8 22.3 3.9 1.7.7 4.2.7 4.5-1.3.3-1.2-.3-2.9-1.1-4-15.5-23.5-32.6-46.2-51-67.6-7.3-8.3-15.6-16.4-25.1-21.9-30.8-17.9-52.9 5.4-65.4 32.4-6.2 13-10.5 26.9-14.2 40.9-7 25.9-11.3 52.7-15.8 78.9Zm241.6 223.4h-.1c-1.7-25.8-2.8-51.8-6.6-77.4-.2-1.8-.8-3.8-2-5.1-2.4-2.6-6.3-2.5-9.7-2.8-7.2-.5-14.5-.2-21.8.4-8.6.8-17.1 2.2-25.6 3.7-46.2 8.7-92.1 18.5-137.7 30.1-4.4 1.2-8.7 2.5-12.9 4.1-4.9 1.9-9.6 4.2-13.9 7.1-2.5 1.5-4.9 3.2-4.8 6.5 2.5 45.2 8.9 90.3 19 134.4.3 1 .6 1.9.9 2.3.2.2.3.2.4.2.1 0 .2-.2.3-.2h.2c0 .1.1.3.2.5.3.7 1.3 1.8 2.7 1.8.7 0 1.5 0 2.4-.2 70.1-11.1 141.4-21.2 210.1-38.2 1.8-2 3-5 4.3-7.3.9-1.7 1.2-3.4.9-5.2-3.2-16.8-5-33.9-6.2-51-.1-1.2-.2-2.5-.1-3.7Zm222.7 233.1c-.9 1-1.9 2-2.8 2.9-3.5 3.2-7.3 6.1-11.6 8.4-4.5 2.3-9.2 3.8-13.8 5.7-13.3 5.8-27.6 8.4-41.9 8-26.6-.8-52.9-12.1-71.5-32.8-2.9-3.3-5.6-3.1-8.2.3-12.2 19.9-31.5 31-52.7 37.5-10.7 3.3-21.9 5.4-32.9 6.9-4.2.1-8.5-.8-12.7-1.1-5.8-.8-11.6-2.5-17.1-5l-.5 1c4.9 15.8 14.1 30.3 26.3 41.5l1.6 1.4c1.7 1.5 3.3 2.3 4.7 2.7l-1 1.1c6.8 69.9-4.8 141.1 5.4 210.3 7.4 23.5 30.7 19.4 46.4 6.2 7.7-5.7 15-12.2 21.5-19.2 7-7.1 13.7-18.3 21.3-22.9 12.6-7.2 22.5 4.7 31.1 14 10.2 11 20.3 22.2 32.7 30.6 15.2 11.2 37.1 11.8 43.3-9.5 9.6-74 5.2-150 1.5-224.7l-4-2.7c2.6.3 5.1-.2 7.5-1.9l.8-.6c9.7-8.9 16.8-27.8 22.2-44.4 1.6-4.9 3-9.6 4.2-13.8Zm169.1-467.2.6-.7h.2c-1.5-33.7-3.9-67.9-11.6-100.8-2-7.6-4.5-15-8.4-21.9-7.9-14.6-24.3-26.6-41.5-22.5-40.5 11.4-80.5 68.6-105 102.4-.4.7.3.6 1.8.4 63.2-2.9 116-.9 163.9 43.1ZM449.2 597c8.5 16.3 25.1 38.9 42.3 46.1 19.3 6.3 36.4-9.4 47-23.8 6.9-9.1 13.3-18.6 18.2-29 1.5-3.4 1-7.2-3.1-7.7-33.6-.7-67.3 1.2-100.8 3.7-6.8.4-7.1 3.1-4.5 8.7.3.7.5 1.4.8 2Zm126.2-134.7v1.8c-1.2 17.1-2.9 34.2-6 51-.6 2.6-.7 5.1.7 7.5 2.1 3.6 3.3 8.2 8.1 8.7 69.1 14.2 138.7 27 208.5 36.6 1.4 0 2.4-1.1 2.7-1.8 0-.1.1-.3.2-.4 0-.2.2 0 .3 0 .2.2.4.2.6 0 .3-.3.7-1.2 1-2.3 10.1-44.1 16.5-89.2 19-134.4.2-3.3-2.3-5-4.8-6.5-4.4-3-9.3-5.3-14.3-7.2-4.3-1.6-8.7-3-13.1-4.1-45.9-11.6-92.1-21.5-138.6-30.2-8.8-1.6-17.6-2.9-26.5-3.6-7.4-.6-14.9-.7-22.3 0-2.7.2-5.7.9-7.2 3.1-1 1.4-1.4 3.1-1.6 4.8-2.8 18.4-4.1 37-5.2 55.5.1 7.3-1.6 14.4-1.4 21.7Zm147-161.8c2.5-9-3.6-18.7-11.7-23.4-6.6-3.8-14.3-5.1-22-5.9-18.4.1-36.7 5.6-52.1 15.6-5.6 3.7-11 8.1-14.4 13.8-3.5 5.8-4.8 13.1-2.3 19.3 4.4 10.8 18.1 14.2 29.8 14.1 21.6 0 43-7 60.7-19.4 5.2-3.6 10.3-8.2 12-14.3ZM377.2 320c5.2-13.6-5.6-26.3-16.7-33.1-15.4-10.1-33.7-15.5-52.1-15.6-7.7.8-15.4 2-22 5.9-8.1 4.7-14.2 14.3-11.7 23.4 1.7 6.1 6.8 10.6 12 14.3 17.6 12.4 39.1 19.3 60.6 19.4 11.7 0 25.4-3.3 29.8-14.1Z"
    class="st1" />
  <path
    d="m815.8 230.5-.6.7c-47.9-44-100.6-46-163.9-43.1-1.5.2-2.2.2-1.8-.4 24.5-33.8 64.5-91 105-102.4 17.2-4.1 33.6 7.9 41.5 22.5 3.9 6.8 6.4 14.3 8.4 21.9 7.7 32.9 10.1 67.1 11.6 100.8 0 .1-.1.2-.2 0ZM575.4 462.3c-.2-7.3 1.5-14.4 1.4-21.7 1.1-18.5 2.4-37.1 5.2-55.5.2-1.7.6-3.4 1.6-4.8 1.5-2.2 4.5-2.9 7.2-3.1 7.4-.7 14.9-.6 22.3 0 8.9.7 17.7 2.1 26.5 3.6 46.5 8.7 92.7 18.6 138.6 30.2 4.5 1.2 8.9 2.5 13.1 4.1 5 1.9 9.9 4.2 14.3 7.2 2.5 1.5 5 3.2 4.8 6.5-2.5 45.2-9 90.3-19 134.4-.3 1.1-.7 2-1 2.3-.2.2-.4.2-.6 0-.1-.1-.2-.2-.3 0 0 .1-.1.3-.2.4-.3.7-1.3 1.8-2.7 1.8-69.9-9.7-139.5-22.4-208.5-36.6-4.8-.5-6-5.1-8.1-8.7-1.4-2.3-1.3-4.9-.7-7.5 3.2-16.8 4.8-33.9 6-51v-1.8Zm135.3-185.2c8.1 4.7 14.2 14.3 11.7 23.4-1.7 6.1-6.8 10.6-12 14.3-17.6 12.4-39.1 19.3-60.7 19.4-11.7 0-25.4-3.3-29.8-14.1-2.5-6.2-1.2-13.5 2.3-19.3 3.5-5.8 8.8-10.1 14.4-13.8 15.4-10.1 33.7-15.5 52.1-15.6 7.7.8 15.4 2 22 5.9Zm-64.6 421.3-4.2 13.8c-5.3 16.6-12.5 35.5-22.2 44.4l-.8.6c-2.4 1.8-4.9 2.3-7.5 1.9L593 747c-7.2-6.9-12.5-13.6-17-22.6v-1.1c14.3.4 28.6-2.2 41.9-8 4.5-1.8 9.2-3.4 13.8-5.7 4.3-2.2 8.1-5.1 11.6-8.4 1-.9 1.9-1.9 2.8-2.9Z"
    class="st0" />
  <path
    d="M615.4 761.8c3.7 74.6 8.1 150.7-1.5 224.7-6.2 21.3-28.1 20.6-43.3 9.5-12.4-8.4-22.5-19.6-32.7-30.6-8.6-9.3-18.6-21.3-31.1-14-7.6 4.6-14.3 15.8-21.3 22.9-6.5 7-13.8 13.4-21.5 19.2-15.7 13.2-39 17.3-46.4-6.2-10.1-69.2 1.4-140.4-5.4-210.3l1-1.1c6.9 1.6 11-8.6 14.4-14.8 1-1.8 2-3.7 3.1-5.5l5.3-6.1c21.1-3.5 45.6-6.2 72.9-6.7 32-.6 60.3 1.8 84.1 5.3h.9c4.5 4.2 11 10.3 17.5 11.2l4 2.7Zm-95.3 103.5c9.2-11 22.2-29.2 21.4-42.1-.5-8-7-14.7-15.3-12.8-6.2 1.2-10.9 6.3-14 11.6-2 3.7-3.2 1.1-5.7-1.2-9-8.5-23.3-10.8-24.1 5.3-.1 6.6 2 13 4.9 18.9 4.8 9.3 12.1 16.8 20 23.4 2.4 2.1 5.7 2.9 8.6 2 2.1-.9 3.5-3 4.6-5h-.5Z"
    class="st2" />
  <path d="m593 747 18.4 12.1c-6.5-.8-13-6.9-17.5-11.2l-.9-.9Z" class="st0" />
  <path
    d="M593.9 747.9h-.9c-23.8-3.4-52.1-5.9-84.1-5.3-27.3.5-51.9 3.2-72.9 6.7l-5.3 6.1c4.6-8.2 9.1-16.5 13.7-24.7l-.7-2.4c21.2-6.5 40.5-17.6 52.7-37.5 2.6-3.4 5.3-3.6 8.2-.3 18.5 20.7 44.9 32 71.5 32.8v1.1c4.5 8.9 9.8 15.6 17 22.6l.9.9Z"
    class="st1" />
  <path
    d="M553.6 582.5c4.1.6 4.7 4.4 3.1 7.7-4.8 10.4-11.3 19.9-18.2 29-10.6 14.4-27.8 30.1-47 23.8-17.2-7.2-33.8-29.8-42.3-46.1-.3-.7-.6-1.3-.8-2-2.7-5.7-2.3-8.3 4.5-8.7 33.5-2.5 67.2-4.4 100.8-3.7Zm-33.5 282.8h.5c-1.1 2-2.5 4.1-4.6 5-2.9.9-6.3 0-8.6-2-7.9-6.6-15.2-14.1-20-23.4-2.9-5.8-5.1-12.3-4.9-18.9.8-16.1 15.1-13.8 24.1-5.3 2.5 2.2 3.7 4.9 5.7 1.2 3.1-5.3 7.8-10.3 14-11.6 8.3-1.9 14.8 4.8 15.3 12.8.8 12.9-12.2 31-21.4 42.1Zm-76.4-136.9.7 2.4c-4.6 8.2-9.1 16.5-13.7 24.7l-17.5 20.3c-1.4-.3-3-1.2-4.7-2.7l-1.6-1.4c-12.2-11.2-21.4-25.7-26.3-41.5l.5-1c5.5 2.5 11.3 4.2 17.1 5 4.2.4 8.5 1.2 12.7 1.1 11-1.5 22.2-3.6 32.9-6.9Z"
    class="st0" />
  <path
    d="m413.2 775.8 17.5-20.3c-1 1.8-2 3.7-3.1 5.5-3.4 6.1-7.5 16.4-14.4 14.8ZM429.8 520c.3 1.9 0 3.6-.9 5.2-1.3 2.3-2.5 5.3-4.3 7.3-68.7 17-140 27.1-210.1 38.2-.9.1-1.7.2-2.4.2-1.4 0-2.4-1.1-2.7-1.8 0-.2-.1-.3-.2-.5 0-.1 0-.1-.2 0-.1 0-.2.2-.3.2-.1 0-.2 0-.4-.2-.3-.4-.7-1.2-.9-2.3-10.1-44.1-16.5-89.2-19-134.4-.2-3.3 2.2-5.1 4.8-6.5 4.3-2.9 9-5.2 13.9-7.1 4.2-1.6 8.6-2.9 12.9-4.1 45.6-11.5 91.5-21.4 137.7-30.1 8.5-1.5 17-2.9 25.6-3.7 7.2-.7 14.5-.9 21.8-.4 3.4.3 7.3.2 9.7 2.8 1.2 1.4 1.8 3.3 2 5.1 3.8 25.6 4.9 51.6 6.6 77.4h.1c0 1.2 0 2.5.1 3.7 1.2 17.1 3.1 34.2 6.2 51Zm-69.3-233.1c11.1 6.8 21.9 19.5 16.7 33.1-4.4 10.8-18.1 14.2-29.8 14.1-21.6 0-43-7-60.6-19.4-5.2-3.6-10.3-8.2-12-14.3-2.5-9 3.6-18.7 11.7-23.4 6.6-3.8 14.3-5.1 22-5.9 18.4.1 36.7 5.6 52.1 15.6Zm-7.2-107.7c.8 1.2 1.4 2.8 1.1 4-.3 2-2.8 2-4.5 1.3-7.3-2.1-14.8-3.4-22.3-3.9-55.4-3.6-103.1 30.1-145.1 62.1l-.7-.9c4.5-26.2 8.8-53 15.8-78.9 3.6-14 7.9-27.9 14.2-40.9 12.6-27 34.7-50.3 65.4-32.4 9.5 5.5 17.8 13.6 25.1 21.9 18.4 21.4 35.5 44 51 67.6Zm584.1 769.1c-.2 0-.3 0-.5-.2l.2-.7s0-.2-.2-.4h-.2v-.4c-.3-.5-.7-1-1.1-1.6l.8-.6c.4.6.8 1.1 1.1 1.5v.2h.2c.4.7.5 1.2.4 1.5 0 .2-.2.3-.4.4h-.2Z"
    class="st0" />
  <path
    d="M212.5 580.9h-1c-3.5-.2-6.4-1.7-8.4-3.8-.8-.5-1.6-1.2-2.2-1.9-1.5-1.6-2.5-3.8-3.2-6.5v-.2c-10.3-45-16.8-90.8-19.3-136.1-.3-6.4 2.9-11.6 9.4-15.6 4.6-3 9.8-5.6 15.6-7.9 4.1-1.6 8.6-3 13.9-4.4h.2c43.3-11 88.5-20.9 138.3-30.2 7.3-1.3 16.8-2.9 26.5-3.8 8.5-.8 16.1-.9 23.3-.4h1.4c3.9.3 10.4.7 15.1 6 2.4 2.7 3.9 6.2 4.5 10.4 2.7 18 4.1 36.2 5.2 54.1 30.2-11.5 56-17 80.6-17.1 14.9 0 29.8 1.7 44.3 5.3l5.4 1.5c1.8.5 3.6 1 5.3 1.4 1-15.6 2.3-31.9 4.8-48.1.3-2.4 1-5.8 3.3-9 2.1-3.1 6.3-6.8 14.6-7.4 7.5-.7 15.3-.7 23.9 0 10.1.8 20 2.4 27.5 3.8 49.5 9.2 95 19.1 139.3 30.3h.1c5.5 1.5 10 2.9 14.1 4.5 6.1 2.3 11.3 4.9 16.1 8.1 2.7 1.6 10 6.2 9.4 15.6-2.5 45.2-9 91-19.3 136v.2c-.8 2.9-1.9 5.1-3.5 6.8-.6.6-1.2 1.1-1.9 1.6-2.3 2.3-5.5 3.7-8.8 3.8h-1.6c-62.7-8.7-131-20.7-208.8-36.7-8.9-1.2-12.5-8.4-14.2-11.9l-.8-1.6c-2.5-4.2-3.1-9.1-1.9-14.6 3.3-17.8 4.9-35.9 5.9-49.6v-1.1c0-.6 0-1.2-.3-2.4-.4-1.9-.7-3.9-1-5.9-.1-.8-.2-1.6-.4-2.5-2.4-.6-4.8-1.2-7.2-1.9-1.7-.5-3.2-.9-4.7-1.3-12.9-3.2-26.1-4.8-39.3-4.7-23.4.2-48.2 5.7-78.1 17.6l-.3 1.2c-.1.6-.3 1.1-.4 1.7-.2.7-.3 1.2-.3 1.9v2.5c1.4 19.5 3.4 35.4 6.1 49.8.7 4 0 7.9-1.8 11.6l-.2.3c-.3.5-.6 1.1-.9 1.6-1.1 2.3-2.6 5.1-4.8 7.5l-2 2.3-3 .7c-59.2 14.7-120.9 24.3-180.5 33.6-10.2 1.6-20.3 3.2-30.4 4.8h-.2c-.9.2-2.1.3-3.4.3Zm-14-147.1c2.5 42.1 8.4 84.6 17.8 126.5 9-1.4 18.1-2.8 27.1-4.2 58-9 117.8-18.4 175-32.3.2-.4.4-.8.6-1.1.3-.5.6-1.1.8-1.6-2.8-15-4.8-31.3-6.2-51.2-.1-1.4-.2-2.7-.2-3.9-.3-4.2-.5-8.5-.8-12.8-1.3-20.8-2.6-42.3-5.6-63h-2.7c-6.2-.4-12.8-.3-20.1.4-8.9.8-17.9 2.3-24.7 3.6-49.3 9.2-94.1 19-136.9 29.9-4.7 1.3-8.5 2.5-11.9 3.8-4.6 1.8-8.5 3.7-12 6h-.2Zm382.2 87.8c75 15.4 141 27.1 201.7 35.6 9.4-41.9 15.3-84.4 17.8-126.4h-.2c-3.5-2.5-7.5-4.5-12.3-6.3-3.5-1.3-7.3-2.5-12.1-3.8-43.9-11.1-89-20.9-137.9-30-7-1.2-16.2-2.8-25.4-3.5-7.5-.6-14.2-.6-20.5 0-2.7 17.9-3.9 36.3-5 53.7 0 4-.4 7.8-.8 11.5-.4 3.4-.7 6.7-.6 9.8v2.6c-1 14.5-2.7 33.4-6.2 52.2v.5c-.2.2-.2.4-.2.5.4.8.8 1.6 1.2 2.3.2.4.5.9.7 1.3Zm-174.1-133Zm185.5-3.1Z"
    class="st0" />
  <path d="M450 600.2c-.3-.7-.6-1.5-.9-2.2l-.3-.9.9-.4.3.9c.3.7.6 1.5.9 2.2l-.9.4Z" />
  <path
    d="M500.4 654.5c-4 0-8-.6-12-1.9l-.8-.3c-19.6-8.2-37.8-32.4-47.3-50.7l-.4-.8c-.3-.6-.5-1.2-.7-1.8-1.3-2.8-4.3-9.5-.6-15.7 3.8-6.4 11.2-6.8 13.6-7 32.3-2.4 67-4.4 101.6-3.7h1.2c4.7.6 8.6 3.3 10.8 7.2 2.4 4.3 2.4 9.6 0 14.6-4.5 9.7-10.6 19.5-19.2 30.8-14.2 19.2-30.2 29.2-46.1 29.2Zm-5.4-20.9c14.6 4.4 28.5-10.8 35.5-20.4 5.8-7.8 10.3-14.5 13.8-20.9-28.6-.2-57.3 1.4-84.5 3.3 8.5 15.1 22.4 32.4 35.1 37.9Z"
    class="st0" />
  <path d="m448.8 597.2-.2-.3.9-.5.1.3-.8.5z" />
  <path
    d="M500.3 695.7c-5.4 0-9.9-4.3-10-9.8l-.9-39.1c-.1-5.5 4.2-10.1 9.8-10.2 5.5-.1 10.1 4.2 10.2 9.8l.9 39.1c.1 5.5-4.2 10.1-9.8 10.2h-.2Zm-91.8 87.4c-2.4 0-4.8-.8-6.7-2.6l-1.7-1.5c-13.6-12.4-23.6-28.3-29.1-45.9-1.6-5.3 1.3-10.9 6.6-12.5 5.3-1.6 10.9 1.3 12.5 6.6 4.4 14.2 12.5 27 23.5 37.1l1.5 1.4c4.1 3.7 4.4 10 .8 14.1-2 2.2-4.7 3.3-7.4 3.3Z"
    class="st0" />
  <path
    d="M438.5 1004.3c-2.2 0-4.3-.3-6.3-.9-7-2-12.1-7.6-14.7-16.2-5.5-37.6-4.6-76.3-3.8-113.8.7-31.7 1.5-64.5-1.6-96.5v-.2l1-1.1 22.8-26.4h.1c24.1-4 48.6-6.2 72.9-6.7 28-.6 56.4 1.2 84.1 5.3.1 0 .2.1.2.3 0 .1-.2.2-.3.2-27.7-4.1-56-5.9-84-5.3-24.3.5-48.8 2.7-72.8 6.7l-23.6 27.4c3.1 32 2.3 64.8 1.6 96.5-.9 37.5-1.7 76.2 3.7 113.7 2.6 8.4 7.6 13.9 14.4 15.8 9.1 2.7 21.2-1.1 31.6-9.8 7.9-5.9 15.1-12.3 21.5-19.1 2.5-2.6 5.1-5.8 7.6-8.9 4.4-5.5 8.9-11.1 13.8-14 12.1-7 21.7 3.4 30.1 12.6l2.1 2.2c9.8 10.6 19.9 21.6 31.9 29.8 9.4 6.9 20.5 9.3 29.1 6.4 6.7-2.3 11.5-7.7 13.8-15.8 9.2-70.6 5.5-143.8 2-214.5l-.5-9.9-22.3-14.7c-.1 0-.1-.2 0-.3 0-.1.2-.1.3 0l22.4 14.8s.1.1.1.2l.5 10c3.5 70.8 7.2 144-2 214.7-2.4 8.2-7.3 13.8-14.2 16.1-8.7 3-20 .5-29.5-6.5-12.1-8.2-22.2-19.2-32-29.8l-2.1-2.2c-8.3-9.1-17.7-19.3-29.5-12.5-4.8 2.9-9.3 8.5-13.6 13.9-2.5 3.1-5.1 6.3-7.6 8.9-6.4 6.8-13.6 13.3-21.5 19.2-8.2 6.9-17.6 10.7-25.7 10.7Z"
    class="st2" />
  <path
    d="M414.9 786c-1.2 0-2.6-.1-3.9-.5-3.1-.7-6.2-2.4-9.1-4.9-4.2-3.6-4.6-9.9-1-14.1 3.4-3.9 9-4.5 13.1-1.7 1.1-1.7 2.4-4.2 3.2-5.7.5-1 1.1-2 1.6-2.9l.8-1.4c.7-1.4 1.5-2.7 2.2-4.1 2.9-5.3 5.8-10.5 8.7-15.7l5-9c2.7-4.8 8.8-6.6 13.6-3.9 4.8 2.7 6.6 8.8 3.9 13.6l-5 9c-2.9 5.2-5.8 10.5-8.7 15.7-.7 1.3-1.5 2.7-2.3 4.1l-.8 1.4c-.4.8-.9 1.6-1.3 2.5-3.3 6.4-9.2 17.6-20.2 17.6Zm1-19.9Z"
    class="st0" />
  <path d="m642.1 713.1-1-.3.3-.8 4.2-13.8 1 .3-4.5 14.6zm4.5-14.7-1-.2v-.2l1 .2Z" />
  <path
    d="M612.8 769.3c-.9 0-1.8 0-2.7-.2-9.1-1.2-16.7-7.8-23.1-13.9l-1-.9c-8.5-8.2-14.2-15.7-19-25.3-2.5-4.9-.5-10.9 4.4-13.4s10.9-.5 13.4 4.4c3.8 7.5 8.1 13.2 15 19.9l1 .9c2.3 2.2 8.4 8.1 11.7 8.5h.2l.3-.2c9.2-8.8 16.7-32.1 19.1-39.8 1.5-4.8 2.9-9.5 4.2-13.6 1.6-5.3 7.2-8.3 12.5-6.7 5.3 1.6 8.3 7.2 6.7 12.5-1.3 4.2-2.7 9-4.3 14-5.4 17-13.2 38-24.9 48.7l-.6.5-1.1.8c-3.6 2.6-7.7 4-12 4Z"
    class="st0" />
  <path
    d="M646.1 708.4c-2.4 0-4.8-.9-6.7-2.6-4.1-3.7-4.4-10.1-.6-14.1 8-8.8 12.3-19.7 11.7-30-.3-5.5 3.9-10.3 9.4-10.6 5.5-.3 10.3 3.9 10.6 9.4.9 15.7-5.2 32-16.9 44.7-2 2.2-4.7 3.2-7.4 3.2Z"
    class="st0" />
  <path
    d="M410.2 745.3c-3.2 0-6.3-.4-9.1-.7-1.3-.2-2.6-.3-3.8-.4h-.4c-6.8-1-13.5-2.9-19.9-5.8-12-5.4-22.3-14.1-29-24.3l-.2-.4c-8.4-14.3-10.9-33.4-6.5-49.7 1.4-5.3 6.9-8.5 12.2-7.1 5.3 1.4 8.5 6.9 7.1 12.2-3 11.1-1.3 24.6 4.4 34.3 4.6 7 11.8 12.9 20.3 16.8 4.6 2.1 9.3 3.5 14.1 4.2 1.5.1 2.9.3 4.3.5 2.4.3 4.6.6 6.5.6 11.8-1.6 21.8-3.8 30.7-6.5 22.2-6.8 37.7-17.7 47.1-33.1l.3-.4.3-.4c4-5.3 8.5-6.5 11.6-6.6 3.1-.1 7.6.8 12 5.7 16.1 18 39.5 28.7 64.3 29.4 13 .4 26-2.1 37.6-7.2h.2c1.5-.7 2.9-1.3 4.4-1.8 3-1.2 5.9-2.3 8.6-3.6 3.1-1.7 6.2-3.9 9.3-6.7.8-.8 1.6-1.6 2.3-2.4 3.7-4.1 10.1-4.3 14.1-.6 4.1 3.7 4.3 10.1.6 14.1-1 1.1-2.1 2.3-3.3 3.3-4.5 4.3-9 7.5-13.8 10h-.1c-3.6 1.9-7.1 3.2-10.5 4.5l-3.9 1.5c-14.2 6.2-30.2 9.2-46 8.8-28.1-.8-54.9-12.3-74.5-31.7-12.2 16.9-30.1 28.8-54.6 36.3-10.1 3.1-21.3 5.5-34.4 7.3h-2ZM251 608.3c-1 0-2-.6-2.4-1.7-.5-1.3.2-2.7 1.5-3.2 41-14.7 85.4-18.5 128.3-10.9 1.4.2 2.3 1.5 2 2.9-.2 1.4-1.5 2.3-2.9 2-42.1-7.4-85.6-3.8-125.8 10.7-.3 0-.6.1-.8.1Zm38.1 50.4c-.7 0-1.4-.3-1.9-.9-.9-1-.8-2.6.3-3.5 21.8-18.7 47.8-32.9 75.3-41.2 1.3-.4 2.7.4 3.1 1.7s-.4 2.7-1.7 3.1c-26.8 8-52.2 21.9-73.4 40.2-.5.4-1.1.6-1.6.6Zm476.6-52h-.7c-42.5-11.9-87.9-14.5-131.5-7.3-1.4.2-2.6-.7-2.9-2.1-.2-1.4.7-2.6 2.1-2.9 44.3-7.3 90.5-4.7 133.7 7.4 1.3.4 2.1 1.8 1.7 3.1-.3 1.1-1.3 1.8-2.4 1.8Zm-20.1 42.8c-.5 0-1-.1-1.4-.4-27-18.5-58.6-29.9-91.2-33.2-1.4-.1-2.4-1.4-2.2-2.7s1.4-2.4 2.7-2.2c33.4 3.3 65.8 15.1 93.5 34 1.1.8 1.4 2.3.7 3.5-.5.7-1.3 1.1-2.1 1.1Z"
    class="st0" />
</svg>