<?xml version="1.0" encoding="UTF-8"?>
<svg xmlns="http://www.w3.org/2000/svg" version="1.1" viewBox="0 0 512 256">
  <defs>
    <style>
      .rv-st0,
      .rv-st1 {
        opacity: .8;
      }

      .rv-st2 {
        fill: currentColor;
      }

      .rv-st3,
      .rv-st4,
      .rv-st1 {
        fill: #fff;
      }

      .rv-st4 {
        opacity: .5;
      }
    </style>
  </defs>
  <path class="rv-st2" d="M135.5,0h240.9v105c0,4.4-3.6,8-8,8h-224.9c-4.4,0-8-3.6-8-8V0h0Z" />
  <path class="rv-st2" d="M143.3,122.8h224.9c4.4,0,8,3.6,8,8v125.2h-240.9v-125.2c0-4.4,3.6-8,8-8Z" />
  <path class="rv-st1" d="M170.3,0h191.3c.4,0,.7.3.7.7v72.1c0,4.4-3.6,8-8,8h-176c-4.4,0-8-3.6-8-8V0h0Z" />
  <path class="rv-st1" d="M178.3,160.5h176c4.4,0,8,3.6,8,8v87.5h-192v-87.5c0-4.4,3.6-8,8-8Z" />
  <circle class="rv-st1" cx="153.9" cy="142.6" r="10.5" />
  <g class="rv-st0">
    <path class="rv-st3"
      d="M170.3,95.2c0-2.7,2.1-4.9,4.7-4.9h2.6c2.6,0,4.8,2.2,4.8,5s-.9,3.5-2.5,4.3l-4.7,2.7v-2.2h0c-2.6,0-4.8-2.1-4.8-4.9ZM174.9,91.5c-1.9,0-3.5,1.6-3.5,3.7s1.6,3.7,3.6,3.7h.2s1,0,1,0v1.4l3-1.7c1.1-.7,1.9-1.9,1.9-3.3,0-2.1-1.6-3.7-3.6-3.7,0,0-2.6,0-2.6,0Z" />
    <rect class="rv-st4" x="191.5" y="90.9" width="27.9" height="10.8" rx="4" ry="4" />
  </g>
  <g class="rv-st0">
    <path class="rv-st3"
      d="M241.6,90.7l3,2.8-.9,1-1.4-1.3v5.8c0,.8.6,1.4,1.4,1.4h3.8v1.4h-3.8c-1.5,0-2.7-1.2-2.7-2.7v-5.8l-1.4,1.3-.9-1,3-2.8ZM249.8,92.1h-3.8v-1.4h3.8c1.5,0,2.7,1.2,2.7,2.7v5.8l1.4-1.3.9,1-3,2.8-3-2.8.9-1,1.4,1.3v-5.8c0-.8-.6-1.4-1.4-1.4Z" />
    <rect class="rv-st4" x="265.1" y="90.9" width="27.9" height="10.8" rx="4" ry="4" />
  </g>
  <g class="rv-st0">
    <path class="rv-st3"
      d="M322,91.2c-.8,0-1.8.3-2.6,1.4l-.5.7-.5-.7c-.8-1.1-1.8-1.5-2.6-1.4-.8,0-1.6.5-2,1.3-.4.8-.4,1.9.3,3.2.7,1.3,2.2,2.9,4.8,4.4,2.6-1.6,4.1-3.1,4.8-4.4.7-1.4.7-2.5.3-3.2-.4-.8-1.1-1.2-2-1.3ZM324.8,96.4c-.9,1.7-2.7,3.4-5.6,5.1l-.3.2-.3-.2c-2.9-1.7-4.7-3.5-5.6-5.1-.9-1.7-.9-3.3-.3-4.5.6-1.2,1.8-2,3.1-2,1.1,0,2.3.4,3.2,1.3,1-1,2.1-1.4,3.2-1.3,1.3,0,2.5.8,3.1,2,.6,1.2.6,2.8-.3,4.5Z" />
    <rect class="rv-st4" x="334.2" y="90.4" width="27.9" height="10.8" rx="4" ry="4" />
  </g>
  <rect class="rv-st1" x="170.4" y="133.3" width="65.2" height="10.8" rx="4" ry="4" />
  <rect class="rv-st4" x="170.4" y="146.4" width="32.6" height="5.4" rx="2.7" ry="2.7" />
</svg>